<?xml version="1.0" encoding="utf-8"?>
<!-- Generator: Adobe Illustrator 16.0.0, SVG Export Plug-In . SVG Version: 6.00 Build 0)  -->
<!DOCTYPE svg PUBLIC "-//W3C//DTD SVG 1.1//EN" "http://www.w3.org/Graphics/SVG/1.1/DTD/svg11.dtd">
<svg version="1.1" id="Layer_1" xmlns="http://www.w3.org/2000/svg" xmlns:xlink="http://www.w3.org/1999/xlink" x="0px" y="0px"
	 width="100px" height="100px" viewBox="0 0 100 100" enable-background="new 0 0 100 100" xml:space="preserve">
<g id="Group_5402" transform="translate(558.47 59.5)">
	<g id="Group_5401" transform="translate(318 992.5)">
		<g id="Rectangle_2474">
			<path fill="#4F4F4F" d="M-801.941-1007.763H-851c-0.552,0-1-0.448-1-1v-34.345c0-0.552,0.448-1,1-1h49.06c0.553,0,1,0.448,1,1
				v34.345C-800.941-1008.211-801.388-1007.763-801.941-1007.763z M-850-1009.763h47.06v-32.345H-850V-1009.763z"/>
		</g>
		<g id="Rectangle_2475">
			<path fill="#4F4F4F" d="M-806.941-1012.763H-846c-0.552,0-1-0.448-1-1v-24.345c0-0.552,0.448-1,1-1h39.06c0.553,0,1,0.448,1,1
				v24.345C-805.941-1013.211-806.388-1012.763-806.941-1012.763z M-845-1014.763h37.06v-22.345H-845V-1014.763z"/>
		</g>
		<g id="Group_5400" transform="translate(6.863)">
			<g id="Path_2467">
				<path fill="#4F4F4F" stroke="#000000" stroke-width="2" stroke-linecap="round" stroke-linejoin="round" d="M-851-1043.608"/>
			</g>
			<g id="Path_2468">
				<path fill="#4F4F4F" stroke="#000000" stroke-width="2" stroke-linecap="round" stroke-linejoin="round" d="M-815.666-1043.608"
					/>
			</g>
		</g>
		<g id="Rectangle_2476">
			<path fill="#4F4F4F" d="M-828.459-1012.764h-10c-2.757,0-5-2.243-5-5v-4c0-2.757,2.243-5,5-5h10c2.757,0,5,2.243,5,5v4
				C-823.459-1015.007-825.702-1012.764-828.459-1012.764z M-838.459-1024.764c-1.654,0-3,1.346-3,3v4c0,1.654,1.346,3,3,3h10
				c1.654,0,3-1.346,3-3v-4c0-1.654-1.346-3-3-3H-838.459z"/>
		</g>
		<g id="Line_467">
			<path fill="#4F4F4F" d="M-836.621-1012.764c-0.552,0-1-0.448-1-1v-12c0-0.552,0.448-1,1-1s1,0.448,1,1v12
				C-835.621-1013.212-836.069-1012.764-836.621-1012.764z"/>
		</g>
		<g id="Line_468">
			<path fill="#4F4F4F" d="M-831.546-1012.764c-0.552,0-1-0.448-1-1v-12c0-0.552,0.448-1,1-1s1,0.448,1,1v12
				C-830.546-1013.212-830.994-1012.764-831.546-1012.764z"/>
		</g>
	</g>
	<g id="Line_469">
		<path fill="#4F4F4F" d="M-525.31,2.864c-0.168,0-0.339-0.042-0.496-0.132c-0.479-0.274-0.646-0.885-0.372-1.364l10.365-18.129
			c0.274-0.48,0.885-0.645,1.365-0.372c0.479,0.274,0.646,0.885,0.372,1.365L-524.441,2.36
			C-524.625,2.684-524.963,2.864-525.31,2.864z"/>
	</g>
	<g id="Line_470">
		<path fill="#4F4F4F" d="M-491.44,2.864c-0.347,0-0.685-0.181-0.869-0.504l-10.365-18.128c-0.274-0.479-0.107-1.09,0.372-1.365
			c0.479-0.274,1.091-0.108,1.364,0.372l10.365,18.129c0.274,0.479,0.107,1.09-0.372,1.364
			C-491.101,2.822-491.272,2.864-491.44,2.864z"/>
	</g>
</g>
<g enable-background="new    ">
	<path fill="#4F4F4F" d="M45.976,74.177h-6.393v-0.983h2.579v-1.114h1.235v1.114h2.579V74.177z M42.774,78.59
		c-1.559,0-2.626-0.792-2.626-1.967c0-1.188,1.067-1.979,2.626-1.979s2.626,0.791,2.626,1.979
		C45.4,77.798,44.333,78.59,42.774,78.59z M40.903,79.441h7.124v3.524h-1.235v-2.53h-5.889V79.441z M42.774,77.643
		c0.863,0,1.451-0.384,1.451-1.02c0-0.646-0.588-1.031-1.451-1.031c-0.864,0-1.439,0.385-1.439,1.031
		C41.334,77.259,41.91,77.643,42.774,77.643z M49.562,76.061h-1.535v2.854h-1.235v-6.774h1.235v2.9h1.535V76.061z"/>
	<path fill="#4F4F4F" d="M53.574,78.002c-1.031,0.048-2.004,0.061-2.867,0.061l-0.155-1.008c1.991-0.012,4.653-0.035,6.944-0.324
		l0.096,0.89c-0.912,0.155-1.859,0.252-2.781,0.313v2.086h-1.234L53.574,78.002L53.574,78.002z M51.379,74.452
		c0-1.151,1.092-1.907,2.688-1.907c1.582,0,2.676,0.756,2.676,1.907s-1.094,1.907-2.676,1.907
		C52.471,76.359,51.379,75.604,51.379,74.452z M59.834,81.756v1.008h-7.818v-3.201h1.234v2.193H59.834L59.834,81.756z
		 M52.555,74.452c0,0.61,0.611,0.995,1.512,0.995c0.889,0,1.498-0.385,1.498-0.995c0-0.611-0.609-0.995-1.498-0.995
		C53.166,73.457,52.555,73.841,52.555,74.452z M58.348,78.494v-6.369h1.234v8.24h-1.234v-1.008h-2.123v-0.863H58.348L58.348,78.494z
		"/>
</g>
</svg>
