<?xml version="1.0" encoding="utf-8"?>
<!-- Generator: Adobe Illustrator 16.0.0, SVG Export Plug-In . SVG Version: 6.00 Build 0)  -->
<!DOCTYPE svg PUBLIC "-//W3C//DTD SVG 1.1//EN" "http://www.w3.org/Graphics/SVG/1.1/DTD/svg11.dtd">
<svg version="1.1" id="Layer_1" xmlns="http://www.w3.org/2000/svg" xmlns:xlink="http://www.w3.org/1999/xlink" x="0px" y="0px"
	 width="100px" height="100px" viewBox="0 0 100 100" enable-background="new 0 0 100 100" xml:space="preserve">
<g id="그룹_4953" transform="translate(-34.622 1570.14)">
	<path id="패스_727" fill="#4F4F4F" d="M104.017-1534.977h-3.775l0.015-4.631h7.347c0.498,0,0.899-0.403,0.899-0.9l0,0v-6.244
		h-1.8v5.344h-6.439l0.026-8.533c0.008-1.358-0.528-2.662-1.491-3.62c-0.955-0.963-2.258-1.504-3.613-1.5H74.382
		c-1.354-0.003-2.657,0.538-3.613,1.5c-0.96,0.957-1.499,2.258-1.493,3.614l0.009,8.543h-6.227v-5.981h-1.8v6.881
		c0,0.497,0.403,0.9,0.9,0.9l0,0h7.129l0.005,4.631h-3.737c-3,0-4.934,2.29-4.934,5.834v16.052h5.1
		c0.446,2.881,2.923,5.01,5.839,5.018c2.916-0.008,5.394-2.137,5.84-5.018h14.765c0.445,2.881,2.923,5.01,5.839,5.018
		c2.916-0.008,5.394-2.137,5.839-5.018h5.1v-16.052C108.951-1532.687,107.015-1534.977,104.017-1534.977z M71.564-1509.876
		c-1.924-0.004-3.59-1.339-4.013-3.216h8.027C75.155-1511.215,73.489-1509.88,71.564-1509.876L71.564-1509.876z M98.009-1509.876
		c-1.925-0.004-3.591-1.339-4.014-3.216h8.025C101.599-1511.215,99.933-1509.88,98.009-1509.876L98.009-1509.876z M107.151-1514.894
		H62.422v-3.698h44.729V-1514.894z M62.422-1520.388v-8.756c0-0.947,0.226-4.034,3.134-4.034h5.538l-0.018-16.775
		c-0.003-0.878,0.345-1.721,0.968-2.341c0.619-0.623,1.461-0.972,2.339-0.969h20.8c0.879-0.002,1.724,0.348,2.342,0.971
		c0.623,0.621,0.971,1.466,0.966,2.345l-0.054,16.771h5.582c2.908,0,3.135,3.087,3.135,4.034v8.756H62.422V-1520.388
		L62.422-1520.388z"/>
	<path id="패스_728" fill="#4F4F4F" d="M94.373-1549.135H75.2c-0.497,0-0.9,0.403-0.9,0.898l0,0v10.966c0,0.497,0.403,0.9,0.9,0.9
		l0,0h19.173c0.497,0,0.899-0.403,0.899-0.9l0,0v-10.966C95.272-1548.732,94.87-1549.135,94.373-1549.135z M93.474-1538.169H76.1
		v-9.166h17.374V-1538.169z"/>
	<path id="패스_729" fill="#4F4F4F" d="M63.059-1554.844c-0.053-2.209,1.691-4.045,3.9-4.105h35.851
		c2.209,0.06,3.953,1.896,3.899,4.105v2.854h1.8v-2.854c0.051-3.202-2.498-5.84-5.699-5.9H66.959c-3.201,0.061-5.75,2.699-5.7,5.9
		v2.854h1.8V-1554.844z"/>
	<path id="패스_730" fill="#4F4F4F" d="M69.541-1530.409c-2.128-0.138-3.967,1.473-4.112,3.6c-0.138,2.129,1.472,3.967,3.6,4.111
		c0.087,0.006,0.172,0.008,0.258,0.008c2.032-0.004,3.715-1.579,3.853-3.606l0,0C73.279-1528.425,71.669-1530.265,69.541-1530.409z
		 M69.148-1524.495c-1.138-0.077-1.999-1.062-1.923-2.199c0.074-1.084,0.973-1.926,2.058-1.928c0.046,0,0.092,0,0.138,0
		c1.138,0.078,1.999,1.063,1.923,2.2C71.267-1525.284,70.286-1524.422,69.148-1524.495L69.148-1524.495z"/>
	<path id="패스_731" fill="#4F4F4F" d="M100.544-1530.409c-2.129-0.14-3.969,1.472-4.111,3.6
		c-0.066,1.023,0.271,2.031,0.948,2.801c0.675,0.772,1.628,1.244,2.651,1.31c0.088,0.005,0.175,0.009,0.262,0.009
		c0.936,0,1.838-0.34,2.539-0.957c0.773-0.674,1.245-1.629,1.311-2.651C104.281-1528.426,102.671-1530.265,100.544-1530.409z
		 M102.345-1526.416c-0.035,0.547-0.287,1.056-0.701,1.415c-0.41,0.362-0.944,0.545-1.494,0.507
		c-0.547-0.035-1.057-0.287-1.416-0.699c-0.36-0.412-0.547-0.953-0.508-1.5c0.074-1.084,0.977-1.926,2.063-1.928
		c0.045,0,0.091,0,0.139,0c1.141,0.078,1.997,1.063,1.922,2.2L102.345-1526.416L102.345-1526.416z"/>
	<rect id="사각형_1833" x="78.175" y="-1527.687" fill="#4F4F4F" width="13.229" height="1.801"/>
</g>
<g enable-background="new    ">
	<path fill="#4F4F4F" d="M36.014,79.262h-2.446v3.706h-1.259v-3.706h-2.471v3.706h-1.259v-3.706H26.18v-1.02h9.823L36.014,79.262z
		 M27.223,74.92c0-1.451,1.559-2.387,3.85-2.387c2.278,0,3.838,0.936,3.838,2.387c0,1.463-1.56,2.398-3.838,2.398
		C28.782,77.318,27.223,76.383,27.223,74.92z M28.495,74.92c0,0.875,1.019,1.403,2.579,1.403c1.547,0,2.566-0.528,2.566-1.403
		c0-0.863-1.02-1.393-2.566-1.393C29.514,73.527,28.495,74.057,28.495,74.92z"/>
	<path fill="#4F4F4F" d="M47.006,77.798v0.996h-9.798v-0.996h4.281v-0.887h-3.022v-4.474h7.376v0.945h-6.141V74.2h5.876v0.924
		h-5.876v0.839h6.212v0.948h-3.178v0.887H47.006z M45.831,81.204c0,1.151-1.367,1.764-3.73,1.764c-2.351,0-3.73-0.612-3.73-1.764
		c0-1.14,1.379-1.738,3.73-1.738C44.464,79.466,45.831,80.064,45.831,81.204z M44.596,81.204c0-0.552-0.852-0.827-2.495-0.827
		c-1.631,0-2.482,0.275-2.482,0.827c0,0.575,0.852,0.84,2.482,0.84C43.744,82.044,44.596,81.779,44.596,81.204z"/>
	<path fill="#4F4F4F" d="M51.139,72.461h0.959l-3.333,11.742h-0.959L51.139,72.461z"/>
	<path fill="#4F4F4F" d="M62.762,77.521v1.008h-4.197v2.052h-1.26v-2.052h-4.365v-1.008H62.762z M54.007,74.584
		c0-1.355,1.511-2.207,3.839-2.207c2.314,0,3.838,0.852,3.838,2.207s-1.521,2.207-3.838,2.207
		C55.518,76.791,54.007,75.939,54.007,74.584z M55.398,81.756h6.283v1.008H54.15v-3.201h1.248V81.756L55.398,81.756z M55.314,74.584
		c0,0.768,0.994,1.211,2.528,1.211c1.523,0,2.521-0.443,2.521-1.211s-0.995-1.211-2.521-1.211
		C56.311,73.373,55.314,73.816,55.314,74.584z"/>
	<path fill="#4F4F4F" d="M73.777,77.414v0.996h-9.799v-0.996h4.271v-1.475h1.235v1.475H73.777z M72.746,76.539
		c-1.738-0.275-3.189-1.079-3.885-2.243c-0.686,1.151-2.111,1.979-3.875,2.243l-0.455-0.973c2.146-0.287,3.705-1.498,3.705-2.842
		v-0.408h1.271v0.408c0,1.354,1.535,2.555,3.707,2.842L72.746,76.539z M72.591,81.072c0,1.212-1.392,1.896-3.729,1.896
		c-2.325,0-3.729-0.684-3.729-1.896c0-1.211,1.403-1.896,3.729-1.896C71.199,79.178,72.591,79.861,72.591,81.072z M71.344,81.072
		c0-0.623-0.888-0.959-2.482-0.959c-1.596,0-2.471,0.336-2.471,0.959s0.875,0.947,2.471,0.947
		C70.456,82.02,71.344,81.695,71.344,81.072z"/>
</g>
</svg>
