<?xml version="1.0" encoding="utf-8"?>
<!-- Generator: Adobe Illustrator 16.0.0, SVG Export Plug-In . SVG Version: 6.00 Build 0)  -->
<!DOCTYPE svg PUBLIC "-//W3C//DTD SVG 1.1//EN" "http://www.w3.org/Graphics/SVG/1.1/DTD/svg11.dtd">
<svg version="1.1" id="Layer_1" xmlns="http://www.w3.org/2000/svg" xmlns:xlink="http://www.w3.org/1999/xlink" x="0px" y="0px"
	 width="100px" height="100px" viewBox="0 0 100 100" enable-background="new 0 0 100 100" xml:space="preserve">
<path id="Path_2466" fill="#4F4F4F" d="M75.584,34.205h-2.893C72.178,22.292,62.639,12.751,50.727,12.24V9.347
	c0-0.528-0.43-0.956-0.958-0.956s-0.956,0.428-0.956,0.956v2.893C36.9,12.751,27.358,22.292,26.847,34.205h-2.892
	c-0.528,0-0.956,0.428-0.956,0.956c0,0.528,0.428,0.957,0.956,0.957h2.892C27.358,48.03,36.9,57.572,48.813,58.082v2.895
	c0,0.525,0.428,0.955,0.956,0.955s0.958-0.428,0.958-0.955v-2.895c11.914-0.51,21.455-10.052,21.965-21.964h2.895
	c0.527,0,0.956-0.429,0.956-0.957C76.541,34.633,76.113,34.205,75.584,34.205L75.584,34.205z M70.779,34.205h-1.771
	c-0.5-9.882-8.398-17.782-18.281-18.283v-1.771C61.584,14.66,70.271,23.348,70.779,34.205L70.779,34.205z M63.754,31.648
	c-0.527,0-0.956,0.428-0.956,0.956v1.6h-5.657v-0.7c0-0.528-0.429-0.956-0.957-0.956c-0.524,0-0.955,0.428-0.955,0.956l0,0v0.7
	h-1.918c-0.525,0-0.957,0.428-0.957,0.956c0,0.528,0.432,0.956,0.957,0.956l0,0h1.916v0.7c0,0.528,0.432,0.956,0.957,0.956
	c0.527,0,0.955-0.428,0.955-0.956v-0.7h5.658v1.601c0,0.528,0.428,0.956,0.956,0.956s0.956-0.428,0.956-0.956v-1.601h2.387
	c-0.494,8.828-7.543,15.876-16.371,16.37v-2.385h1.604c0.525,0,0.956-0.428,0.956-0.956c0-0.527-0.431-0.956-0.956-0.956h-1.604
	v-5.655h0.701c0.527,0,0.955-0.428,0.955-0.955c0-0.528-0.428-0.957-0.955-0.957h-0.701v-1.918c0-0.527-0.428-0.955-0.956-0.955
	s-0.956,0.428-0.956,0.955l0,0v1.918h-0.7c-0.528,0-0.956,0.429-0.956,0.957c0,0.527,0.428,0.955,0.956,0.955h0.7v5.658h-1.6
	c-0.528,0-0.956,0.428-0.956,0.956s0.428,0.956,0.956,0.956h1.6v2.387c-8.829-0.495-15.876-7.543-16.371-16.371h2.385v1.6
	c0,0.527,0.428,0.956,0.956,0.956c0.528,0,0.956-0.429,0.956-0.956v-1.6h5.658v0.699c0,0.528,0.428,0.956,0.956,0.956
	s0.956-0.428,0.956-0.956V36.12h1.918c0.528,0,0.956-0.429,0.956-0.957c0-0.528-0.428-0.956-0.956-0.956h-1.918v-0.7
	c0-0.528-0.428-0.956-0.956-0.956s-0.956,0.428-0.956,0.956v0.7h-5.658v-1.6c0-0.528-0.428-0.956-0.956-0.956
	c-0.528,0-0.956,0.428-0.956,0.956v1.6h-2.386c0.494-8.83,7.543-15.879,16.373-16.373v2.386h-1.6c-0.528,0-0.956,0.428-0.956,0.956
	c0,0.528,0.428,0.956,0.956,0.956h1.6v5.658h-0.7c-0.528,0-0.956,0.428-0.956,0.956c0,0.528,0.428,0.956,0.956,0.956l0,0h0.7v1.919
	c0,0.528,0.428,0.956,0.956,0.956s0.957-0.428,0.957-0.956v-1.919h0.699c0.528,0,0.956-0.428,0.956-0.956
	c0-0.528-0.428-0.956-0.956-0.956h-0.699v-5.656h1.603c0.524,0,0.956-0.428,0.956-0.956c0-0.528-0.432-0.956-0.956-0.956l0,0h-1.603
	v-2.388c8.828,0.496,15.875,7.543,16.369,16.371H64.71v-1.6c0.001-0.528-0.426-0.957-0.954-0.958
	C63.756,31.647,63.755,31.647,63.754,31.648L63.754,31.648z M48.814,14.148v1.77c-9.886,0.498-17.789,8.401-18.287,18.287h-1.771
	c0.508-10.86,9.198-19.548,20.058-20.053V14.148z M28.76,36.114h1.767c0.5,9.883,8.4,17.782,18.283,18.282v1.77
	c-10.855-0.507-19.542-9.192-20.05-20.048V36.114z M50.727,56.172V54.4c9.883-0.5,17.783-8.398,18.282-18.281h1.771
	C70.273,46.975,61.586,55.663,50.727,56.172z"/>
<g enable-background="new    ">
	<path fill="#4F4F4F" d="M43.787,76.814v0.996h-4.233v2.48h-1.235v-2.48h-4.342v-0.996h7.101c0.264-1.295,0.275-2.269,0.275-3.144
		h-6.141v-0.996h7.364v0.899c0,0.898,0,1.906-0.252,3.236h1.463V76.814z M36.411,81.756h6.345v1.008h-7.592v-3.44h1.247V81.756
		L36.411,81.756z"/>
	<path fill="#4F4F4F" d="M50.762,73.275c0,3.228-1.296,5.961-5.014,7.761l-0.659-0.983c2.842-1.367,4.186-3.273,4.401-5.769h-3.862
		v-1.009H50.762z M53.952,72.139v10.829h-1.235V72.139H53.952z"/>
	<path fill="#4F4F4F" d="M62.762,78.218c-2.255,0.396-4.81,0.456-6.691,0.456l-0.133-1.008c0.647,0,1.393,0,2.158-0.023v-2.219
		h1.225v2.184c1.128-0.049,2.291-0.121,3.356-0.289L62.762,78.218z M60.566,76.646c0.216-1.164,0.252-2.017,0.265-2.688h-4.233
		v-1.007h5.444v0.623c0,0.73,0,1.8-0.265,3.201L60.566,76.646z M58.814,81.756h6.117v1.008h-7.363V79.55h1.246V81.756z
		 M66.023,75.566v1.021h-1.438v3.683h-1.248v-8.131h1.248v3.43h1.438V75.566z"/>
</g>
</svg>
