<?xml version="1.0" encoding="utf-8"?>
<!-- Generator: Adobe Illustrator 16.0.0, SVG Export Plug-In . SVG Version: 6.00 Build 0)  -->
<!DOCTYPE svg PUBLIC "-//W3C//DTD SVG 1.1//EN" "http://www.w3.org/Graphics/SVG/1.1/DTD/svg11.dtd">
<svg version="1.1" id="Layer_1" xmlns="http://www.w3.org/2000/svg" xmlns:xlink="http://www.w3.org/1999/xlink" x="0px" y="0px"
	 width="100px" height="100px" viewBox="0 0 100 100" enable-background="new 0 0 100 100" xml:space="preserve">
<g id="그룹_4950" transform="translate(260.764 1567.979)">
	<path id="패스_714" fill="#4F4F4F" d="M-186.965-1557.174H-233.8c-2.083,0.003-3.772,1.691-3.775,3.775v30.092
		c0.003,2.084,1.691,3.772,3.775,3.775h17.8l-1.033,9.275h-3.4c-0.532,0-0.964,0.432-0.964,0.963s0.432,0.965,0.964,0.965h20.095
		c0.533,0,0.965-0.434,0.965-0.965s-0.432-0.963-0.965-0.963h-3.4l-1.029-9.275h17.8c2.084-0.003,3.771-1.691,3.772-3.775v-30.092
		C-183.198-1555.48-184.883-1557.168-186.965-1557.174z M-205.675-1510.256h-9.414l1.034-9.272h7.348L-205.675-1510.256z
		 M-185.118-1523.307c-0.002,1.02-0.828,1.847-1.852,1.848H-233.8c-1.02-0.001-1.846-0.828-1.847-1.848v-30.092
		c0-1.021,0.827-1.847,1.847-1.848h46.833c1.021,0.001,1.848,0.828,1.848,1.848L-185.118-1523.307z"/>
	<path id="패스_715" fill="#4F4F4F" d="M-216.888-1542.124c-0.016-0.069-0.04-0.137-0.071-0.2c0-0.006,0-0.015-0.008-0.023
		l-3.364-6.726c-0.163-0.326-0.497-0.532-0.861-0.532c-0.365,0-0.699,0.206-0.862,0.532l-3.364,6.726c0,0.008,0,0.016-0.009,0.023
		c-0.03,0.063-0.054,0.131-0.071,0.2v0.008c-0.014,0.066-0.02,0.133-0.02,0.2v13.826c0,0.532,0.432,0.964,0.964,0.964h6.726
		c0.532,0,0.964-0.432,0.964-0.964v-13.826c0-0.067-0.006-0.134-0.02-0.2L-216.888-1542.124z M-221.188-1546.489l1.8,3.607h-3.61
		L-221.188-1546.489z M-218.788-1529.056h-4.8v-11.9h4.8V-1529.056z"/>
	<path id="패스_716" fill="#4F4F4F" d="M-194.137-1550.189h-19.806c-0.532-0.001-0.964,0.43-0.964,0.962c0,0,0,0,0,0.001v8.969
		c0,0.532,0.432,0.964,0.964,0.964h19.805c0.532,0,0.964-0.432,0.964-0.964v-8.969
		C-193.174-1549.759-193.606-1550.189-194.137-1550.189z M-195.101-1541.221h-17.878v-7.041h1.062v4.268h1.924v-4.268h1.435v2.4
		h1.929v-2.4h1.809v4.268h1.932v-4.268h1.438v2.4h1.928v-2.4h1.438v4.268h1.928v-4.268h1.063L-195.101-1541.221z"/>
</g>
<g enable-background="new    ">
	<path fill="#4F4F4F" d="M42.945,75.111c0,1.848,0.695,3.719,2.206,4.594l-0.719,0.898c-1.02-0.601-1.691-1.666-2.075-2.927
		c-0.384,1.367-1.079,2.53-2.123,3.189l-0.743-0.911c1.535-0.959,2.255-2.914,2.255-4.848V74.33h-1.907v-1.021h4.894v1.021h-1.787
		L42.945,75.111L42.945,75.111z M45.535,72.341h1.164v10.099h-1.164v-5.491H43.94v-1.009h1.595V72.341z M48.894,72.125v10.83h-1.175
		v-10.83H48.894z"/>
	<path fill="#4F4F4F" d="M60.509,80.629v1.007h-9.811v-1.007h4.282v-2.531h1.246v2.531H60.509z M51.118,77.534
		c2.11-0.336,3.825-1.835,3.825-3.466v-0.024h-3.441v-0.995h8.18v0.995H56.24v0.024c0,1.631,1.728,3.095,3.873,3.43l-0.502,0.982
		c-1.787-0.334-3.313-1.342-4.021-2.723c-0.694,1.393-2.204,2.424-3.958,2.76L51.118,77.534z"/>
</g>
</svg>
