<?xml version="1.0" encoding="utf-8"?>
<!-- Generator: Adobe Illustrator 16.0.0, SVG Export Plug-In . SVG Version: 6.00 Build 0)  -->
<!DOCTYPE svg PUBLIC "-//W3C//DTD SVG 1.1//EN" "http://www.w3.org/Graphics/SVG/1.1/DTD/svg11.dtd">
<svg version="1.1" id="Layer_1" xmlns="http://www.w3.org/2000/svg" xmlns:xlink="http://www.w3.org/1999/xlink" x="0px" y="0px"
	 width="100px" height="100px" viewBox="0 0 100 100" enable-background="new 0 0 100 100" xml:space="preserve">
<g id="그룹_4952" transform="translate(191.02 1569.299)">
	<path id="패스_722" fill="#4F4F4F" d="M-116.979-1548.219v37.158c-0.001,1.293-1.049,2.34-2.341,2.342h-42.558
		c-1.293-0.002-2.341-1.049-2.342-2.342v-37.158h-1.8v37.158c0.003,2.285,1.855,4.139,4.142,4.141h42.558
		c2.286-0.002,4.139-1.854,4.141-4.141v-37.158H-116.979z"/>
	<path id="패스_723" fill="#4F4F4F" d="M-161.141-1513.633c0.152,0.107,0.334,0.166,0.52,0.166c0.102,0,0.204-0.018,0.3-0.051
		c0.081-0.029,8.219-2.801,19.505,0.021c0.017,0,0.033,0,0.05,0.007s0.062,0.011,0.094,0.015c0.038,0.002,0.075,0.002,0.113,0
		c0.032,0,0.063-0.006,0.094-0.01c0.037-0.007,0.076-0.018,0.113-0.025c0.018-0.004,0.034-0.006,0.051-0.012
		c0.082-0.027,8.256-2.789,19.508,0.021c0.07,0.02,0.146,0.025,0.219,0.025c0.199,0,0.396-0.064,0.556-0.189
		c0.22-0.17,0.349-0.433,0.349-0.709v-37.253c0-0.366-0.224-0.695-0.563-0.833c-1.141-0.463-2.305-0.854-3.489-1.171v-7.381
		c0-0.323-0.172-0.621-0.448-0.781c-0.279-0.161-0.623-0.161-0.9,0l-15.659,9.145c-11.282-4.375-19.931,0.029-20.3,0.222
		c-0.297,0.156-0.483,0.464-0.482,0.8v37.254C-161.519-1514.076-161.378-1513.802-161.141-1513.633z M-124.112-1525.177
		c0.24-0.168,0.385-0.443,0.385-0.737v-25.835c0.753,0.216,1.506,0.457,2.249,0.741v35.5c-5.13-1.184-10.437-1.385-15.642-0.588
		L-124.112-1525.177z M-139.474-1551.295l13.947-8.146v33.057l-13.947,9.739V-1551.295z M-159.721-1551.044
		c5.859-2.3,12.373-2.288,18.222,0.035v35.5c-3.123-0.703-6.314-1.062-9.515-1.067c-2.933-0.021-5.857,0.315-8.707,1.008V-1551.044z
		"/>
</g>
<g enable-background="new    ">
	<path fill="#4F4F4F" d="M45.976,74.177h-6.393v-0.983h2.579v-1.114h1.235v1.114h2.579V74.177z M42.773,78.59
		c-1.559,0-2.626-0.792-2.626-1.967c0-1.188,1.067-1.979,2.626-1.979s2.626,0.791,2.626,1.979
		C45.4,77.798,44.333,78.59,42.773,78.59z M40.902,79.441h7.124v3.524h-1.235v-2.53h-5.889V79.441z M42.773,77.643
		c0.863,0,1.451-0.384,1.451-1.02c0-0.646-0.588-1.031-1.451-1.031c-0.864,0-1.439,0.385-1.439,1.031
		C41.334,77.259,41.91,77.643,42.773,77.643z M49.562,76.061h-1.535v2.854h-1.235v-6.774h1.235v2.9h1.535V76.061z"/>
	<path fill="#4F4F4F" d="M60.398,80.533v1.019h-9.787v-1.019h2.254v-3.504h1.225v3.504h1.451v-3.504h1.223v3.504H60.398z
		 M58.143,74.152h-6.561v-1.008h7.797v1.14c0,1.354,0,2.807-0.385,4.905l-1.234-0.146c0.383-1.979,0.383-3.44,0.383-4.762V74.152z"
		/>
</g>
</svg>
