<?xml version="1.0" encoding="utf-8"?>
<!-- Generator: Adobe Illustrator 16.0.0, SVG Export Plug-In . SVG Version: 6.00 Build 0)  -->
<!DOCTYPE svg PUBLIC "-//W3C//DTD SVG 1.1//EN" "http://www.w3.org/Graphics/SVG/1.1/DTD/svg11.dtd">
<svg version="1.1" id="Layer_1" xmlns="http://www.w3.org/2000/svg" xmlns:xlink="http://www.w3.org/1999/xlink" x="0px" y="0px"
	 width="100px" height="100px" viewBox="0 0 100 100" enable-background="new 0 0 100 100" xml:space="preserve">
<g id="그룹_4954" transform="translate(-70.341 1570.356)">
	<path id="패스_732" fill="#4F4F4F" d="M145.349-1555.425c-2.854-2.91-6.758-4.547-10.833-4.539
		c-4.069-0.008-7.97,1.624-10.819,4.527l-3.107,3.028l-3.1-3.016c-2.853-2.91-6.758-4.546-10.833-4.539
		c-4.075-0.007-7.98,1.629-10.833,4.539c-3.306,3.342-4.919,8.003-4.386,12.674c0.053,0.495,0.496,0.853,0.99,0.801
		c0.001,0,0.002,0,0.003,0c0.494-0.052,0.853-0.496,0.801-0.99c0-0.001,0-0.002,0-0.003c-0.473-4.131,0.954-8.254,3.878-11.211
		c2.516-2.565,5.959-4.007,9.552-4c3.599-0.005,7.048,1.443,9.563,4.016l3.737,3.639c0.35,0.341,0.905,0.341,1.256,0l3.75-3.651
		c2.517-2.565,5.96-4.007,9.554-4c3.594-0.007,7.035,1.435,9.553,4c5.273,5.375,5.273,13.985,0,19.36l-23.481,23.76l-19.745-19.979
		c-0.35-0.354-0.919-0.356-1.272-0.007l0,0c-0.353,0.35-0.357,0.918-0.008,1.271l20.386,20.625c0.169,0.172,0.399,0.269,0.64,0.27
		c0.241-0.001,0.471-0.098,0.643-0.27l24.123-24.406C151.321-1539.605,151.32-1549.347,145.349-1555.425z"/>
	<path id="패스_733" fill="#4F4F4F" d="M105.972-1537.07l1.787-2.085l4.811,10.423c0.149,0.336,0.49,0.544,0.856,0.522
		c0.365-0.016,0.684-0.249,0.808-0.593l4.948-13.7l5.5,17.271c0.104,0.331,0.392,0.572,0.736,0.619
		c0.04,0.006,0.079,0.008,0.12,0.008c0.305,0,0.589-0.153,0.755-0.408l6.749-10.348c0.271-0.416,0.154-0.974-0.262-1.245
		s-0.977-0.154-1.246,0.262l-5.713,8.76l-5.727-17.989c-0.117-0.368-0.455-0.62-0.84-0.627c-0.386-0.008-0.733,0.231-0.864,0.594
		l-5.1,14.135l-4.48-9.707c-0.128-0.279-0.39-0.473-0.694-0.515c-0.304-0.042-0.608,0.073-0.807,0.306l-2.43,2.835h-9.034
		c-0.497,0-0.9,0.403-0.9,0.9l0,0c0,0.497,0.403,0.9,0.9,0.9l0,0h9.448C105.557-1536.755,105.803-1536.872,105.972-1537.07z"/>
</g>
<g enable-background="new    ">
	<path fill="#4F4F4F" d="M39.62,79.669c1.943,0,4.642-0.012,6.968-0.358l0.084,0.898c-2.387,0.456-4.978,0.479-6.896,0.479
		L39.62,79.669z M46.012,75.495c0,1.534-1.259,2.603-2.951,2.603c-1.691,0-2.938-1.065-2.938-2.603s1.247-2.603,2.938-2.603
		C44.753,72.893,46.012,73.96,46.012,75.495z M41.334,75.495c0,0.937,0.732,1.548,1.727,1.548c1.008,0,1.739-0.611,1.739-1.548
		c0-0.947-0.731-1.547-1.739-1.547C42.066,73.948,41.334,74.548,41.334,75.495z M48.483,72.125v10.854h-1.248V72.125H48.483z"/>
	<path fill="#4F4F4F" d="M60.422,80.677v1.021h-9.811v-1.021h2.627v-1.87h-1.439v-3.479h6.236v-1.438h-6.26v-0.996h7.481v3.42H53.01
		v1.498h6.489v0.996h-1.595v1.869L60.422,80.677L60.422,80.677z M54.461,80.677h2.219v-1.87h-2.219V80.677z"/>
</g>
</svg>
